<mxfile host="app.diagrams.net" modified="2023-10-16T09:17:50.657Z" agent="Mozilla/5.0 (Windows NT 10.0; Win64; x64) AppleWebKit/537.36 (KHTML, like Gecko) Chrome/118.0.0.0 Safari/537.36" etag="-XpEB6tlyRczwl7GtSCt" version="22.0.4" type="github">
  <diagram name="Page-1" id="13e1069c-82ec-6db2-03f1-153e76fe0fe0">
    <mxGraphModel dx="1912" dy="981" grid="1" gridSize="10" guides="0" tooltips="1" connect="1" arrows="1" fold="1" page="1" pageScale="1" pageWidth="4681" pageHeight="3300" background="none" math="0" shadow="0">
      <root>
        <mxCell id="0" />
        <mxCell id="1" parent="0" />
        <mxCell id="S-2wYg71FKJjTmGdnb83-3" value="长久" style="shape=umlLifeline;perimeter=lifelinePerimeter;whiteSpace=wrap;html=1;container=1;dropTarget=0;collapsible=0;recursiveResize=0;outlineConnect=0;portConstraint=eastwest;newEdgeStyle={&quot;curved&quot;:0,&quot;rounded&quot;:0};" vertex="1" parent="1">
          <mxGeometry x="340" y="320" width="100" height="3110" as="geometry" />
        </mxCell>
        <mxCell id="S-2wYg71FKJjTmGdnb83-4" value="OpenApi" style="shape=umlLifeline;perimeter=lifelinePerimeter;whiteSpace=wrap;html=1;container=1;dropTarget=0;collapsible=0;recursiveResize=0;outlineConnect=0;portConstraint=eastwest;newEdgeStyle={&quot;curved&quot;:0,&quot;rounded&quot;:0};" vertex="1" parent="1">
          <mxGeometry x="740" y="320" width="100" height="3110" as="geometry" />
        </mxCell>
        <mxCell id="S-2wYg71FKJjTmGdnb83-7" value="" style="html=1;points=[[0,0,0,0,5],[0,1,0,0,-5],[1,0,0,0,5],[1,1,0,0,-5]];perimeter=orthogonalPerimeter;outlineConnect=0;targetShapes=umlLifeline;portConstraint=eastwest;newEdgeStyle={&quot;curved&quot;:0,&quot;rounded&quot;:0};" vertex="1" parent="S-2wYg71FKJjTmGdnb83-4">
          <mxGeometry x="40" y="120" width="10" height="1190" as="geometry" />
        </mxCell>
        <mxCell id="S-2wYg71FKJjTmGdnb83-5" value="薪酬" style="shape=umlLifeline;perimeter=lifelinePerimeter;whiteSpace=wrap;html=1;container=1;dropTarget=0;collapsible=0;recursiveResize=0;outlineConnect=0;portConstraint=eastwest;newEdgeStyle={&quot;curved&quot;:0,&quot;rounded&quot;:0};" vertex="1" parent="1">
          <mxGeometry x="1140" y="320" width="100" height="3110" as="geometry" />
        </mxCell>
        <mxCell id="S-2wYg71FKJjTmGdnb83-16" value="" style="html=1;points=[[0,0,0,0,5],[0,1,0,0,-5],[1,0,0,0,5],[1,1,0,0,-5]];perimeter=orthogonalPerimeter;outlineConnect=0;targetShapes=umlLifeline;portConstraint=eastwest;newEdgeStyle={&quot;curved&quot;:0,&quot;rounded&quot;:0};" vertex="1" parent="S-2wYg71FKJjTmGdnb83-5">
          <mxGeometry x="40" y="210" width="10" height="80" as="geometry" />
        </mxCell>
        <mxCell id="S-2wYg71FKJjTmGdnb83-23" value="" style="html=1;points=[[0,0,0,0,5],[0,1,0,0,-5],[1,0,0,0,5],[1,1,0,0,-5]];perimeter=orthogonalPerimeter;outlineConnect=0;targetShapes=umlLifeline;portConstraint=eastwest;newEdgeStyle={&quot;curved&quot;:0,&quot;rounded&quot;:0};" vertex="1" parent="S-2wYg71FKJjTmGdnb83-5">
          <mxGeometry x="45" y="620" width="10" height="40" as="geometry" />
        </mxCell>
        <mxCell id="S-2wYg71FKJjTmGdnb83-24" value="获取数据" style="html=1;align=left;spacingLeft=2;endArrow=block;rounded=0;edgeStyle=orthogonalEdgeStyle;curved=0;rounded=0;" edge="1" target="S-2wYg71FKJjTmGdnb83-23" parent="S-2wYg71FKJjTmGdnb83-5">
          <mxGeometry relative="1" as="geometry">
            <mxPoint x="50" y="600" as="sourcePoint" />
            <Array as="points">
              <mxPoint x="80" y="630" />
            </Array>
          </mxGeometry>
        </mxCell>
        <mxCell id="S-2wYg71FKJjTmGdnb83-28" value="" style="html=1;points=[[0,0,0,0,5],[0,1,0,0,-5],[1,0,0,0,5],[1,1,0,0,-5]];perimeter=orthogonalPerimeter;outlineConnect=0;targetShapes=umlLifeline;portConstraint=eastwest;newEdgeStyle={&quot;curved&quot;:0,&quot;rounded&quot;:0};" vertex="1" parent="S-2wYg71FKJjTmGdnb83-5">
          <mxGeometry x="45" y="750" width="10" height="40" as="geometry" />
        </mxCell>
        <mxCell id="S-2wYg71FKJjTmGdnb83-29" value="计算结果" style="html=1;align=left;spacingLeft=2;endArrow=block;rounded=0;edgeStyle=orthogonalEdgeStyle;curved=0;rounded=0;" edge="1" target="S-2wYg71FKJjTmGdnb83-28" parent="S-2wYg71FKJjTmGdnb83-5">
          <mxGeometry relative="1" as="geometry">
            <mxPoint x="50" y="730" as="sourcePoint" />
            <Array as="points">
              <mxPoint x="80" y="760" />
            </Array>
          </mxGeometry>
        </mxCell>
        <mxCell id="S-2wYg71FKJjTmGdnb83-30" value="" style="html=1;points=[[0,0,0,0,5],[0,1,0,0,-5],[1,0,0,0,5],[1,1,0,0,-5]];perimeter=orthogonalPerimeter;outlineConnect=0;targetShapes=umlLifeline;portConstraint=eastwest;newEdgeStyle={&quot;curved&quot;:0,&quot;rounded&quot;:0};" vertex="1" parent="S-2wYg71FKJjTmGdnb83-5">
          <mxGeometry x="45" y="860" width="10" height="40" as="geometry" />
        </mxCell>
        <mxCell id="S-2wYg71FKJjTmGdnb83-31" value="审核-&amp;gt;结果待确认" style="html=1;align=left;spacingLeft=2;endArrow=block;rounded=0;edgeStyle=orthogonalEdgeStyle;curved=0;rounded=0;" edge="1" target="S-2wYg71FKJjTmGdnb83-30" parent="S-2wYg71FKJjTmGdnb83-5">
          <mxGeometry relative="1" as="geometry">
            <mxPoint x="50" y="840" as="sourcePoint" />
            <Array as="points">
              <mxPoint x="80" y="870" />
            </Array>
          </mxGeometry>
        </mxCell>
        <mxCell id="S-2wYg71FKJjTmGdnb83-32" value="" style="html=1;points=[[0,0,0,0,5],[0,1,0,0,-5],[1,0,0,0,5],[1,1,0,0,-5]];perimeter=orthogonalPerimeter;outlineConnect=0;targetShapes=umlLifeline;portConstraint=eastwest;newEdgeStyle={&quot;curved&quot;:0,&quot;rounded&quot;:0};" vertex="1" parent="S-2wYg71FKJjTmGdnb83-5">
          <mxGeometry x="45" y="990" width="10" height="40" as="geometry" />
        </mxCell>
        <mxCell id="S-2wYg71FKJjTmGdnb83-33" value="导入更多的回传科目" style="html=1;align=left;spacingLeft=2;endArrow=block;rounded=0;edgeStyle=orthogonalEdgeStyle;curved=0;rounded=0;" edge="1" target="S-2wYg71FKJjTmGdnb83-32" parent="S-2wYg71FKJjTmGdnb83-5">
          <mxGeometry relative="1" as="geometry">
            <mxPoint x="50" y="970" as="sourcePoint" />
            <Array as="points">
              <mxPoint x="80" y="1000" />
            </Array>
          </mxGeometry>
        </mxCell>
        <mxCell id="S-2wYg71FKJjTmGdnb83-6" value="MQ" style="shape=umlLifeline;perimeter=lifelinePerimeter;whiteSpace=wrap;html=1;container=1;dropTarget=0;collapsible=0;recursiveResize=0;outlineConnect=0;portConstraint=eastwest;newEdgeStyle={&quot;curved&quot;:0,&quot;rounded&quot;:0};" vertex="1" parent="1">
          <mxGeometry x="1580" y="320" width="100" height="3110" as="geometry" />
        </mxCell>
        <mxCell id="S-2wYg71FKJjTmGdnb83-13" value="" style="html=1;points=[[0,0,0,0,5],[0,1,0,0,-5],[1,0,0,0,5],[1,1,0,0,-5]];perimeter=orthogonalPerimeter;outlineConnect=0;targetShapes=umlLifeline;portConstraint=eastwest;newEdgeStyle={&quot;curved&quot;:0,&quot;rounded&quot;:0};" vertex="1" parent="S-2wYg71FKJjTmGdnb83-6">
          <mxGeometry x="40" y="470" width="10" height="80" as="geometry" />
        </mxCell>
        <mxCell id="S-2wYg71FKJjTmGdnb83-8" value="推送数据到openApi" style="html=1;verticalAlign=bottom;endArrow=block;curved=0;rounded=0;entryX=0;entryY=0;entryDx=0;entryDy=5;" edge="1" target="S-2wYg71FKJjTmGdnb83-7" parent="1" source="S-2wYg71FKJjTmGdnb83-3">
          <mxGeometry relative="1" as="geometry">
            <mxPoint x="710" y="445" as="sourcePoint" />
          </mxGeometry>
        </mxCell>
        <mxCell id="S-2wYg71FKJjTmGdnb83-9" value="返回推送结果" style="html=1;verticalAlign=bottom;endArrow=open;dashed=1;endSize=8;curved=0;rounded=0;exitX=0;exitY=1;exitDx=0;exitDy=-5;" edge="1" source="S-2wYg71FKJjTmGdnb83-7" parent="1" target="S-2wYg71FKJjTmGdnb83-3">
          <mxGeometry relative="1" as="geometry">
            <mxPoint x="710" y="515" as="targetPoint" />
          </mxGeometry>
        </mxCell>
        <mxCell id="S-2wYg71FKJjTmGdnb83-14" value="推送顺序消息等待消费" style="html=1;verticalAlign=bottom;endArrow=block;curved=0;rounded=0;entryX=0;entryY=0;entryDx=0;entryDy=5;" edge="1" target="S-2wYg71FKJjTmGdnb83-13" parent="1" source="S-2wYg71FKJjTmGdnb83-4">
          <mxGeometry relative="1" as="geometry">
            <mxPoint x="1550" y="525" as="sourcePoint" />
          </mxGeometry>
        </mxCell>
        <mxCell id="S-2wYg71FKJjTmGdnb83-15" value="薪酬消费对应消息" style="html=1;verticalAlign=bottom;endArrow=open;dashed=1;endSize=8;curved=0;rounded=0;exitX=0;exitY=1;exitDx=0;exitDy=-5;" edge="1" source="S-2wYg71FKJjTmGdnb83-13" parent="1" target="S-2wYg71FKJjTmGdnb83-5">
          <mxGeometry relative="1" as="geometry">
            <mxPoint x="1550" y="595" as="targetPoint" />
          </mxGeometry>
        </mxCell>
        <mxCell id="S-2wYg71FKJjTmGdnb83-17" value="校验数据合法性" style="html=1;verticalAlign=bottom;endArrow=block;curved=0;rounded=0;entryX=0;entryY=0;entryDx=0;entryDy=5;" edge="1" target="S-2wYg71FKJjTmGdnb83-16" parent="1" source="S-2wYg71FKJjTmGdnb83-7">
          <mxGeometry relative="1" as="geometry">
            <mxPoint x="1110" y="535" as="sourcePoint" />
          </mxGeometry>
        </mxCell>
        <mxCell id="S-2wYg71FKJjTmGdnb83-18" value="校验结果返回" style="html=1;verticalAlign=bottom;endArrow=open;dashed=1;endSize=8;curved=0;rounded=0;exitX=0;exitY=1;exitDx=0;exitDy=-5;" edge="1" source="S-2wYg71FKJjTmGdnb83-16" parent="1" target="S-2wYg71FKJjTmGdnb83-4">
          <mxGeometry relative="1" as="geometry">
            <mxPoint x="1110" y="605" as="targetPoint" />
          </mxGeometry>
        </mxCell>
        <mxCell id="S-2wYg71FKJjTmGdnb83-37" value="告知openApi已确认" style="html=1;verticalAlign=bottom;endArrow=block;curved=0;rounded=0;entryX=0;entryY=0;entryDx=0;entryDy=5;" edge="1" parent="1" source="S-2wYg71FKJjTmGdnb83-5">
          <mxGeometry relative="1" as="geometry">
            <mxPoint x="720" y="1425" as="sourcePoint" />
            <mxPoint x="790" y="1425" as="targetPoint" />
          </mxGeometry>
        </mxCell>
      </root>
    </mxGraphModel>
  </diagram>
</mxfile>
